<svg width="33" height="33" viewBox="0 0 33 33" fill="none" xmlns="http://www.w3.org/2000/svg">
<path opacity="0.2" d="M12.25 30.5L14.25 20.5L6.25 17.5L20.25 2.5L18.25 12.5L26.25 15.5L12.25 30.5Z" fill="#818181"/>
<path d="M27.2238 15.2711C27.1859 15.1108 27.1091 14.9624 27 14.839C26.891 14.7156 26.7532 14.621 26.5988 14.5636L19.3975 11.8624L21.23 2.69612C21.2715 2.48315 21.2426 2.26246 21.1477 2.06735C21.0528 1.87224 20.8969 1.71331 20.7038 1.61453C20.5106 1.51574 20.2905 1.48248 20.0767 1.51974C19.863 1.55701 19.6672 1.66279 19.5188 1.82112L5.51879 16.8211C5.40508 16.9409 5.32283 17.0871 5.27937 17.2464C5.23591 17.4058 5.23261 17.5734 5.26975 17.7344C5.30689 17.8953 5.38332 18.0446 5.49222 18.1688C5.60111 18.293 5.73908 18.3883 5.89379 18.4461L13.0975 21.1474L11.27 30.3036C11.2285 30.5166 11.2574 30.7373 11.3524 30.9324C11.4473 31.1275 11.6031 31.2864 11.7963 31.3852C11.9895 31.484 12.2096 31.5173 12.4233 31.48C12.6371 31.4427 12.8329 31.337 12.9813 31.1786L26.9813 16.1786C27.0929 16.0588 27.1734 15.9134 27.2157 15.7551C27.258 15.5969 27.2608 15.4307 27.2238 15.2711ZM13.9213 27.2499L15.23 20.7024C15.2769 20.4702 15.2398 20.2289 15.1253 20.0215C15.0108 19.8141 14.8265 19.654 14.605 19.5699L8.00004 17.0886L18.5775 5.75612L17.27 12.3036C17.2232 12.5358 17.2603 12.7771 17.3748 12.9845C17.4892 13.1919 17.6736 13.352 17.895 13.4361L24.495 15.9111L13.9213 27.2499Z" fill="currentColor"/>
</svg>
