<svg width="33" height="33" viewBox="0 0 33 33" fill="none" xmlns="http://www.w3.org/2000/svg">
<path opacity="0.2" d="M26.45 20.4263L27.4587 24.5L23.75 22.3175L20.0413 24.5L21.05 20.4263L17.75 17.7013L22.0812 17.3675L23.75 13.5L25.4188 17.3675L29.75 17.7013L26.45 20.4263Z" fill="#818181"/>
<path d="M4.75 8.5C4.75 8.23478 4.85536 7.98043 5.04289 7.79289C5.23043 7.60536 5.48478 7.5 5.75 7.5H27.75C28.0152 7.5 28.2696 7.60536 28.4571 7.79289C28.6446 7.98043 28.75 8.23478 28.75 8.5C28.75 8.76522 28.6446 9.01957 28.4571 9.20711C28.2696 9.39464 28.0152 9.5 27.75 9.5H5.75C5.48478 9.5 5.23043 9.39464 5.04289 9.20711C4.85536 9.01957 4.75 8.76522 4.75 8.5ZM5.75 17.5H12.75C13.0152 17.5 13.2696 17.3946 13.4571 17.2071C13.6446 17.0196 13.75 16.7652 13.75 16.5C13.75 16.2348 13.6446 15.9804 13.4571 15.7929C13.2696 15.6054 13.0152 15.5 12.75 15.5H5.75C5.48478 15.5 5.23043 15.6054 5.04289 15.7929C4.85536 15.9804 4.75 16.2348 4.75 16.5C4.75 16.7652 4.85536 17.0196 5.04289 17.2071C5.23043 17.3946 5.48478 17.5 5.75 17.5ZM14.75 23.5H5.75C5.48478 23.5 5.23043 23.6054 5.04289 23.7929C4.85536 23.9804 4.75 24.2348 4.75 24.5C4.75 24.7652 4.85536 25.0196 5.04289 25.2071C5.23043 25.3946 5.48478 25.5 5.75 25.5H14.75C15.0152 25.5 15.2696 25.3946 15.4571 25.2071C15.6446 25.0196 15.75 24.7652 15.75 24.5C15.75 24.2348 15.6446 23.9804 15.4571 23.7929C15.2696 23.6054 15.0152 23.5 14.75 23.5ZM30.3862 18.4725L27.5713 20.7962L28.4287 24.26C28.4758 24.451 28.4654 24.6516 28.399 24.8367C28.3326 25.0218 28.213 25.1832 28.0553 25.3008C27.8976 25.4183 27.7088 25.4867 27.5124 25.4975C27.316 25.5083 27.1208 25.4609 26.9513 25.3612L23.75 23.4775L20.5487 25.3612C20.3792 25.4609 20.184 25.5083 19.9876 25.4975C19.7912 25.4867 19.6024 25.4183 19.4447 25.3008C19.287 25.1832 19.1674 25.0218 19.101 24.8367C19.0346 24.6516 19.0242 24.451 19.0713 24.26L19.9275 20.7962L17.1138 18.4725C16.9603 18.3456 16.8483 18.1758 16.7919 17.9848C16.7356 17.7938 16.7376 17.5903 16.7976 17.4005C16.8576 17.2106 16.9729 17.043 17.1288 16.9191C17.2847 16.7952 17.474 16.7206 17.6725 16.705L21.4025 16.4163L22.8312 13.1038C22.9085 12.9241 23.0366 12.771 23.1999 12.6635C23.3632 12.5559 23.5545 12.4986 23.75 12.4986C23.9455 12.4986 24.1368 12.5559 24.3001 12.6635C24.4634 12.771 24.5915 12.9241 24.6688 13.1038L26.0975 16.4163L29.8275 16.705C30.026 16.7206 30.2153 16.7952 30.3712 16.9191C30.5271 17.043 30.6424 17.2106 30.7024 17.4005C30.7624 17.5903 30.7644 17.7938 30.7081 17.9848C30.6518 18.1758 30.5397 18.3456 30.3862 18.4725ZM27.2025 18.5075L25.3412 18.3638C25.1597 18.3498 24.9854 18.2866 24.8371 18.1808C24.6889 18.0751 24.5723 17.9309 24.5 17.7638L23.75 16.0238L23 17.7638C22.9277 17.9309 22.8111 18.0751 22.6629 18.1808C22.5146 18.2866 22.3403 18.3498 22.1588 18.3638L20.2975 18.5075L21.6863 19.655C21.8317 19.7749 21.9403 19.9334 21.9996 20.1123C22.0589 20.2912 22.0664 20.4833 22.0212 20.6663L21.5837 22.4312L23.2425 21.455C23.3963 21.3644 23.5715 21.3167 23.75 21.3167C23.9285 21.3167 24.1037 21.3644 24.2575 21.455L25.9163 22.4312L25.4788 20.6663C25.4336 20.4833 25.4411 20.2912 25.5004 20.1123C25.5597 19.9334 25.6683 19.7749 25.8137 19.655L27.2025 18.5075Z" fill="currentColor"/>
</svg>
