<svg width="20" height="21" viewBox="0 0 20 21" fill="none" xmlns="http://www.w3.org/2000/svg">
<path opacity="0.2" d="M8.125 2.97363V5.47363C8.125 5.63939 8.05915 5.79836 7.94194 5.91557C7.82473 6.03278 7.66576 6.09863 7.5 6.09863H5C4.83424 6.09863 4.67527 6.03278 4.55806 5.91557C4.44085 5.79836 4.375 5.63939 4.375 5.47363V2.97363C4.375 2.80787 4.44085 2.6489 4.55806 2.53169C4.67527 2.41448 4.83424 2.34863 5 2.34863H7.5C7.66576 2.34863 7.82473 2.41448 7.94194 2.53169C8.05915 2.6489 8.125 2.80787 8.125 2.97363ZM16.25 7.97363H13.75C13.5842 7.97363 13.4253 8.03948 13.3081 8.15669C13.1908 8.2739 13.125 8.43287 13.125 8.59863V11.0986C13.125 11.2644 13.1908 11.4234 13.3081 11.5406C13.4253 11.6578 13.5842 11.7236 13.75 11.7236H16.25C16.4158 11.7236 16.5747 11.6578 16.6919 11.5406C16.8092 11.4234 16.875 11.2644 16.875 11.0986V8.59863C16.875 8.43287 16.8092 8.2739 16.6919 8.15669C16.5747 8.03948 16.4158 7.97363 16.25 7.97363ZM16.25 14.8486H13.75C13.5842 14.8486 13.4253 14.9145 13.3081 15.0317C13.1908 15.1489 13.125 15.3079 13.125 15.4736V17.9736C13.125 18.1394 13.1908 18.2984 13.3081 18.4156C13.4253 18.5328 13.5842 18.5986 13.75 18.5986H16.25C16.4158 18.5986 16.5747 18.5328 16.6919 18.4156C16.8092 18.2984 16.875 18.1394 16.875 17.9736V15.4736C16.875 15.3079 16.8092 15.1489 16.6919 15.0317C16.5747 14.9145 16.4158 14.8486 16.25 14.8486Z" fill="#818181"/>
<path d="M13.75 12.3486H16.25C16.5815 12.3486 16.8995 12.2169 17.1339 11.9825C17.3683 11.7481 17.5 11.4302 17.5 11.0986V8.59863C17.5 8.26711 17.3683 7.94917 17.1339 7.71475C16.8995 7.48033 16.5815 7.34863 16.25 7.34863H13.75C13.4185 7.34863 13.1005 7.48033 12.8661 7.71475C12.6317 7.94917 12.5 8.26711 12.5 8.59863V9.22363H6.875V6.72363H7.5C7.83152 6.72363 8.14946 6.59194 8.38388 6.35752C8.6183 6.1231 8.75 5.80515 8.75 5.47363V2.97363C8.75 2.64211 8.6183 2.32417 8.38388 2.08975C8.14946 1.85533 7.83152 1.72363 7.5 1.72363H5C4.66848 1.72363 4.35054 1.85533 4.11612 2.08975C3.8817 2.32417 3.75 2.64211 3.75 2.97363V5.47363C3.75 5.80515 3.8817 6.1231 4.11612 6.35752C4.35054 6.59194 4.66848 6.72363 5 6.72363H5.625V15.4736C5.625 15.9709 5.82254 16.4478 6.17417 16.7995C6.52581 17.1511 7.00272 17.3486 7.5 17.3486H12.5V17.9736C12.5 18.3052 12.6317 18.6231 12.8661 18.8575C13.1005 19.0919 13.4185 19.2236 13.75 19.2236H16.25C16.5815 19.2236 16.8995 19.0919 17.1339 18.8575C17.3683 18.6231 17.5 18.3052 17.5 17.9736V15.4736C17.5 15.1421 17.3683 14.8242 17.1339 14.5897C16.8995 14.3553 16.5815 14.2236 16.25 14.2236H13.75C13.4185 14.2236 13.1005 14.3553 12.8661 14.5897C12.6317 14.8242 12.5 15.1421 12.5 15.4736V16.0986H7.5C7.33424 16.0986 7.17527 16.0328 7.05806 15.9156C6.94085 15.7984 6.875 15.6394 6.875 15.4736V10.4736H12.5V11.0986C12.5 11.4302 12.6317 11.7481 12.8661 11.9825C13.1005 12.2169 13.4185 12.3486 13.75 12.3486ZM5 2.97363H7.5V5.47363H5V2.97363ZM13.75 15.4736H16.25V17.9736H13.75V15.4736ZM13.75 8.59863H16.25V11.0986H13.75V8.59863Z" fill="currentColor"/>
</svg>
