<svg width="20" height="21" viewBox="0 0 20 21" fill="none" xmlns="http://www.w3.org/2000/svg">
<path opacity="0.2" d="M13.75 4.84863V16.0986C13.75 16.4302 13.6183 16.7481 13.3839 16.9825C13.1495 17.2169 12.8315 17.3486 12.5 17.3486H7.5C7.16848 17.3486 6.85054 17.2169 6.61612 16.9825C6.3817 16.7481 6.25 16.4302 6.25 16.0986V4.84863C6.25 4.51711 6.3817 4.19917 6.61612 3.96475C6.85054 3.73033 7.16848 3.59863 7.5 3.59863H12.5C12.8315 3.59863 13.1495 3.73033 13.3839 3.96475C13.6183 4.19917 13.75 4.51711 13.75 4.84863Z" fill="white"/>
<path d="M12.5 2.97363H7.5C7.00272 2.97363 6.52581 3.17118 6.17417 3.52281C5.82254 3.87444 5.625 4.35135 5.625 4.84863V16.0986C5.625 16.5959 5.82254 17.0728 6.17417 17.4245C6.52581 17.7761 7.00272 17.9736 7.5 17.9736H12.5C12.9973 17.9736 13.4742 17.7761 13.8258 17.4245C14.1775 17.0728 14.375 16.5959 14.375 16.0986V4.84863C14.375 4.35135 14.1775 3.87444 13.8258 3.52281C13.4742 3.17118 12.9973 2.97363 12.5 2.97363ZM13.125 16.0986C13.125 16.2644 13.0592 16.4234 12.9419 16.5406C12.8247 16.6578 12.6658 16.7236 12.5 16.7236H7.5C7.33424 16.7236 7.17527 16.6578 7.05806 16.5406C6.94085 16.4234 6.875 16.2644 6.875 16.0986V4.84863C6.875 4.68287 6.94085 4.5239 7.05806 4.40669C7.17527 4.28948 7.33424 4.22363 7.5 4.22363H12.5C12.6658 4.22363 12.8247 4.28948 12.9419 4.40669C13.0592 4.5239 13.125 4.68287 13.125 4.84863V16.0986ZM16.875 7.34863V13.5986C16.875 13.7644 16.8092 13.9234 16.6919 14.0406C16.5747 14.1578 16.4158 14.2236 16.25 14.2236C16.0842 14.2236 15.9253 14.1578 15.8081 14.0406C15.6908 13.9234 15.625 13.7644 15.625 13.5986V7.34863C15.625 7.18287 15.6908 7.0239 15.8081 6.90669C15.9253 6.78948 16.0842 6.72363 16.25 6.72363C16.4158 6.72363 16.5747 6.78948 16.6919 6.90669C16.8092 7.0239 16.875 7.18287 16.875 7.34863ZM19.375 8.59863V12.3486C19.375 12.5144 19.3092 12.6734 19.1919 12.7906C19.0747 12.9078 18.9158 12.9736 18.75 12.9736C18.5842 12.9736 18.4253 12.9078 18.3081 12.7906C18.1908 12.6734 18.125 12.5144 18.125 12.3486V8.59863C18.125 8.43287 18.1908 8.2739 18.3081 8.15669C18.4253 8.03948 18.5842 7.97363 18.75 7.97363C18.9158 7.97363 19.0747 8.03948 19.1919 8.15669C19.3092 8.2739 19.375 8.43287 19.375 8.59863ZM4.375 7.34863V13.5986C4.375 13.7644 4.30915 13.9234 4.19194 14.0406C4.07473 14.1578 3.91576 14.2236 3.75 14.2236C3.58424 14.2236 3.42527 14.1578 3.30806 14.0406C3.19085 13.9234 3.125 13.7644 3.125 13.5986V7.34863C3.125 7.18287 3.19085 7.0239 3.30806 6.90669C3.42527 6.78948 3.58424 6.72363 3.75 6.72363C3.91576 6.72363 4.07473 6.78948 4.19194 6.90669C4.30915 7.0239 4.375 7.18287 4.375 7.34863ZM1.875 8.59863V12.3486C1.875 12.5144 1.80915 12.6734 1.69194 12.7906C1.57473 12.9078 1.41576 12.9736 1.25 12.9736C1.08424 12.9736 0.925268 12.9078 0.808058 12.7906C0.690848 12.6734 0.625 12.5144 0.625 12.3486V8.59863C0.625 8.43287 0.690848 8.2739 0.808058 8.15669C0.925268 8.03948 1.08424 7.97363 1.25 7.97363C1.41576 7.97363 1.57473 8.03948 1.69194 8.15669C1.80915 8.2739 1.875 8.43287 1.875 8.59863Z" fill="currentColor"/>
</svg>
